# xmcd
#
# Track frame offsets: 
#        150
#        17506
#        37068
#        56687
#        70428
#        88160
#        105802
#        124753
#        139047
#        157614
#
# Disc length: 2371 seconds
#
# Revision: 0
# Processed by: cddbd v1.5.2PL0 Copyright (c) Steve Scherf et al.
# Submitted via: ExactAudioCopy v1.3
#
DISCID=7a09410a
DTITLE=Martin Metzger - Bad Habit Baby
DYEAR=2019
DGENRE=Blues
TTITLE0=Gunslinger
TTITLE1=Bad Habit Baby
TTITLE2=Dry Spell
TTITLE3=Doin Nothin
TTITLE4=Nothin Like Love
TTITLE5=Rock Dog
TTITLE6=Tailgaitin
TTITLE7=Rocket Girl
TTITLE8=This Way Or That Way
TTITLE9=Not Free At All
EXTD=
EXTT0=
EXTT1=
EXTT2=
EXTT3=
EXTT4=
EXTT5=
EXTT6=
EXTT7=
EXTT8=
EXTT9=
PLAYORDER=
